{"title":"R.I.P.D. (2013) DVD RIP","uid":9431151,"size":1006146813,"categoryP":"video","categoryS":"movies","magnet":"?xt=urn:btih:a9f864b52bddf693e048b996eb2f0cef026a5ad1&amp;dn=+R.I.P.D.+%282013%29+DVD+RIP&amp;tr=udp%3A%2F%2Ftracker.openbittorrent.com%3A80&amp;tr=udp%3A%2F%2Fopen.demonii.com%3A1337&amp;tr=udp%3A%2F%2Ftracker.coppersurfer.tk%3A6969&amp;tr=udp%3A%2F%2Fexodus.desync.com%3A6969","seeders":3,"leechers":0,"uploader":"sonicx33","files":-1,"time":1388805193,"description":"Audio English, Spanish\n\n\nSubtitles: English\n\n &lt;a href=&quot;\nhttp://postimg.org/image/s7lq5toq5/&quot; rel=&quot;nofollow&quot; target=&quot;_NEW&quot;&gt;\nhttp://postimg.org/image/s7lq5toq5/&lt;/a&gt;\n\n\n &lt;a href=&quot;\nhttp://postimg.org/image/mgvjs3gq5/&quot; rel=&quot;nofollow&quot; target=&quot;_NEW&quot;&gt;\nhttp://postimg.org/image/mgvjs3gq5/&lt;/a&gt;\n\n\nFormat                                   : MPEG-4\nFormat profile                           : Base Media / Version 2\nCodec ID                                 : mp42\nFile size                                : 939 MiB\nDuration                                 : 1h 35mn\nOverall bit rate mode                    : Variable\nOverall bit rate                         : 1 370 Kbps\nMovie name                               : R.I.P.D.\nPerformer                                : Robert Schwentke\nGenre                                    : Sci-Fi &amp; Fantasy\n\nRecorded date                            : UTC 2013-10-08 07:00:00\nEncoded date                             : UTC 2014-01-04 01:09:53\nTagged date                              : UTC 2014-01-04 02:05:40\nWriting application                      : HandBrake 0.9.9 2013052900\nCover                                    : Yes\nLongDescription                          : Jeff Bridges and Ryan Reynolds headline this supernatural action-adventure as two cops dispatched by the Rest In Peace Department (R.I.P.D.) to protect and serve the living from increasingly destructive spirits hiding among the unsuspecting on Earth. When they uncover a plot that could end life as we know it, the new partners have to turn grudging respect into top-notch teamwork to restore the cosmic balance...or watch the tunnel to the afterlife begin sending angry souls the very wrong way.\n\nVideo\nID                                       : 1\nFormat                                   : AVC\nFormat/Info                              : Advanced Video Codec\nFormat profile                           : &lt;a class=&quot;__cf_email__&quot; href=&quot;/cdn-cgi/l/email-protection&quot; data-cfemail=&quot;ffb29e9691bfb3cbd1cf&quot;&gt;[email&amp;#160;protected]&lt;/a&gt;&lt;script cf-hash='f9e31' type=&quot;text/javascript&quot;&gt;\n/* &lt;![CDATA[ */!function(){try{var t=&quot;currentScript&quot;in document?document.currentScript:function(){for(var t=document.getElementsByTagName(&quot;script&quot;),e=t.length;e--;)if(t[e].getAttribute(&quot;cf-hash&quot;))return t[e]}();if(t&amp;&amp;t.previousSibling){var e,r,n,i,c=t.previousSibling,a=c.getAttribute(&quot;data-cfemail&quot;);if(a){for(e=&quot;&quot;,r=parseInt(a.substr(0,2),16),n=2;a.length-n;n+=2)i=parseInt(a.substr(n,2),16)^r,e+=String.fromCharCode(i);e=document.createTextNode(e),c.parentNode.replaceChild(e,c)}}}catch(u){}}();/* ]]&gt; */&lt;/script&gt;\nFormat settings, CABAC                   : Yes\nFormat settings, ReFrames                : 4 frames\nCodec ID                                 : avc1\nCodec ID/Info                            : Advanced Video Coding\nDuration                                 : 1h 35mn\nBit rate                                 : 1 043 Kbps\nWidth                                    : 852 pixels\nHeight                                   : 480 pixels\nDisplay aspect ratio                     : 16:9\nFrame rate mode                          : Variable\nFrame rate                               : 23.976 fps\nMinimum frame rate                       : 23.974 fps\nMaximum frame rate                       : 23.981 fps\nColor space                              : YUV\nChroma subsampling                       : 4:2:0\nBit depth                                : 8 bits\nScan type                                : Progressive\nBits/(Pixel*Frame)                       : 0.106\nStream size                              : 715 MiB (76%)\nWriting library                          : x264 core 130 r2273 b3065e6\nEncoding settings                        : cabac=1 / ref=2 / deblock=1:0:0 / \nEncoded date                             : UTC 2014-01-04 01:09:53\nTagged date                              : UTC 2014-01-04 02:05:40\nColor primaries                          : BT.709\nTransfer characteristics                 : BT.709\nMatrix coefficients                      : BT.709\n\nAudio #1\nID                                       : 2\nFormat                                   : AAC\nFormat/Info                              : Advanced Audio Codec\nFormat profile                           : LC\nCodec ID                                 : 40\nDuration                                 : 1h 35mn\nBit rate mode                            : Variable\nBit rate                                 : 160 Kbps\nMaximum bit rate                         : 280 Kbps\nChannel(s)                               : 2 channels\nChannel positions                        : Front: L R\nSampling rate                            : 44.1 KHz\nCompression mode                         : Lossy\nStream size                              : 110 MiB (12%)\nLanguage                                 : English\nEncoded date                             : UTC 2014-01-04 01:09:53\nTagged date                              : UTC 2014-01-04 02:05:3\n &lt;a href=&quot;\nhttp://www.imdb.com/title/tt0790736/&quot; rel=&quot;nofollow&quot; target=&quot;_NEW&quot;&gt;\nhttp://www.imdb.com/title/tt0790736/&lt;/a&gt;","torrent":{"xt":"urn:btih:a9f864b52bddf693e048b996eb2f0cef026a5ad1","amp;dn":"+R.I.P.D.+%282013%29+DVD+RIP","amp;tr":["udp%3A%2F%2Ftracker.openbittorrent.com%3A80","udp%3A%2F%2Fopen.demonii.com%3A1337","udp%3A%2F%2Ftracker.coppersurfer.tk%3A6969","udp%3A%2F%2Fexodus.desync.com%3A6969"],"infoHash":"a9f864b52bddf693e048b996eb2f0cef026a5ad1","infoHashBuffer":{"type":"Buffer","data":[169,248,100,181,43,221,246,147,224,72,185,150,235,47,12,239,2,106,90,209]},"announce":[],"urlList":[]}}